<svg width="1207" height="270" viewBox="0 0 1207 270" fill="none" xmlns="http://www.w3.org/2000/svg">
<path d="M180.999 267.499C198.668 267.475 216.161 264.784 232.476 258C248.791 251.216 263.022 241.511 275.499 229C287.976 216.489 297.259 201.834 303.999 185.5C310.738 169.167 313.022 152.4 312.998 134.731C312.974 117.062 310.783 99.8154 303.999 83.5002C297.215 67.1851 287.01 53.4774 274.499 41.0002C261.988 28.5231 247.832 18.7399 231.499 12.0003C215.165 5.26062 198.642 0.158528 180.972 0.182443L180.059 1.15069C144.572 38.7779 145.055 97.6915 181.155 134.732L184.476 138.781C212.724 173.217 214.059 222.413 187.722 258.331L180.999 267.499Z" fill="url(#paint0_linear)"/>
<path d="M181.337 0.0874184C199.007 0.111334 216.498 3.61523 232.813 10.3991C249.128 17.1829 263.948 27.1138 276.425 39.6248C288.902 52.1357 298.793 66.9817 305.532 83.3152C312.272 99.6486 315.729 117.15 315.705 134.819C315.681 152.488 312.177 169.98 305.393 186.295C298.609 202.61 288.678 217.429 276.167 229.906C263.656 242.383 248.81 252.274 232.477 259.014C216.143 265.753 198.642 269.21 180.973 269.186L180.06 268.218C144.572 230.591 145.056 171.677 181.155 134.637L185.217 129.685C213.119 95.6703 214.799 47.1882 189.32 11.3232L181.337 0.0874184Z" fill="url(#paint1_linear)"/>
<path fill-rule="evenodd" clip-rule="evenodd" d="M36 56.9805C36 72.1683 48.3122 84.4805 63.5 84.4805H111.5C126.688 84.4805 139 72.1683 139 56.9805C139 41.7926 126.688 29.4805 111.5 29.4805H63.5C48.3122 29.4805 36 41.7926 36 56.9805ZM27.5 162.48C12.3122 162.48 0 150.168 0 134.98C0 119.793 12.3122 107.48 27.5 107.48H111.5C126.688 107.48 139 119.793 139 134.98C139 150.168 126.688 162.48 111.5 162.48H27.5ZM86.5 240.48C71.3122 240.48 59 228.168 59 212.98C59 197.793 71.3122 185.48 86.5 185.48H111.5C126.688 185.48 139 197.793 139 212.98C139 228.168 126.688 240.48 111.5 240.48H86.5Z" fill="url(#paint2_linear)"/>
<path d="M456.244 214.062H398.771C389.925 214.062 382.754 206.891 382.754 198.045C382.754 189.199 389.925 182.028 398.771 182.028H456.244C458.443 182.028 460.327 181.244 461.897 179.673C463.467 178.102 464.253 176.218 464.253 174.02C464.253 171.743 463.467 170.251 461.897 169.544C460.327 168.838 458.443 168.485 456.244 168.485H422.797C417.222 168.485 412.001 167.424 407.133 165.305C402.265 163.185 398.025 160.319 394.413 156.708C390.802 153.017 387.936 148.738 385.816 143.87C383.775 139.002 382.754 133.781 382.754 128.206C382.754 122.632 383.775 117.41 385.816 112.542C387.936 107.674 390.802 103.435 394.413 99.8229C398.025 96.2113 402.265 93.3847 407.133 91.3433C412.001 89.2233 417.222 88.1634 422.797 88.1634H471.908C480.754 88.1634 487.925 95.3345 487.925 104.181C487.925 113.027 480.754 120.198 471.908 120.198H422.797C420.598 120.198 418.714 120.983 417.143 122.553C415.573 124.123 414.788 126.008 414.788 128.206C414.788 130.483 415.573 132.446 417.143 134.095C418.714 135.665 420.598 136.45 422.797 136.45H456.244C461.74 136.45 466.922 137.392 471.79 139.277C476.658 141.083 480.898 143.634 484.509 146.932C488.121 150.23 490.987 154.195 493.107 158.827C495.227 163.459 496.287 168.523 496.287 174.02C496.287 179.594 495.227 184.815 493.107 189.684C490.987 194.473 488.121 198.712 484.509 202.403C480.898 206.014 476.658 208.88 471.79 211.001C466.922 213.042 461.74 214.062 456.244 214.062ZM625.729 149.876C625.729 159.298 624.041 168.092 620.664 176.257C617.288 184.344 612.695 191.372 606.885 197.339C601.074 203.227 594.244 207.899 586.393 211.354C578.619 214.73 570.258 216.418 561.306 216.418C552.435 216.418 544.072 214.73 536.221 211.354C528.448 207.899 521.617 203.227 515.729 197.339C509.919 191.372 505.325 184.344 501.949 176.257C498.573 168.092 496.885 159.298 496.885 149.876C496.885 140.297 498.573 131.425 501.949 123.26C505.325 115.094 509.919 108.067 515.729 102.178C521.617 96.2113 528.448 91.5396 536.221 88.1634C544.072 84.7873 552.435 83.0992 561.306 83.0992C570.258 83.0992 578.619 84.7087 586.393 87.9278C594.244 91.0685 601.074 95.5831 606.885 101.472C612.695 107.282 617.288 114.309 620.664 122.553C624.041 130.719 625.729 139.826 625.729 149.876ZM593.34 149.876C593.34 144.694 592.477 140.023 590.75 135.861C589.101 131.622 586.824 128.01 583.919 125.026C581.014 121.964 577.598 119.648 573.672 118.078C569.826 116.429 565.704 115.604 561.306 115.604C556.91 115.604 552.748 116.429 548.823 118.078C544.976 119.648 541.6 121.964 538.694 125.026C535.868 128.01 533.63 131.622 531.981 135.861C530.333 140.023 529.508 144.694 529.508 149.876C529.508 154.744 530.333 159.259 531.981 163.42C533.63 167.581 535.868 171.193 538.694 174.255C541.6 177.318 544.976 179.752 548.823 181.557C552.748 183.285 556.91 184.148 561.306 184.148C565.704 184.148 569.826 183.323 573.672 181.675C577.598 180.026 581.014 177.711 583.919 174.726C586.824 171.743 589.101 168.132 590.75 163.891C592.477 159.652 593.34 154.98 593.34 149.876ZM666.252 197.868C666.252 206.812 659.002 214.062 650.058 214.062C641.114 214.062 633.864 206.812 633.864 197.868V53.9509C633.864 45.0071 641.114 37.7567 650.058 37.7567C659.002 37.7567 666.252 45.0071 666.252 53.9508V197.868ZM713.606 197.868C713.606 206.812 706.356 214.062 697.412 214.062C688.468 214.062 681.218 206.812 681.218 197.868V104.122C681.218 95.1782 688.468 87.9278 697.412 87.9278C706.356 87.9278 713.606 95.1782 713.606 104.122V197.868ZM760.724 197.986C760.724 206.865 753.527 214.062 744.648 214.062C735.769 214.062 728.572 206.865 728.572 197.986V140.45C728.572 124.997 735.275 110.305 746.945 100.176C752.127 95.4653 757.976 91.8536 764.493 89.3411C771.088 86.7501 777.958 85.4546 785.103 85.4546C792.797 85.4546 800.06 86.9465 806.891 89.9299C813.721 92.835 819.688 96.8786 824.792 102.061C829.896 107.164 833.9 113.17 836.805 120.08C839.789 126.911 841.28 134.213 841.28 141.986V197.987C841.28 206.865 834.083 214.062 825.205 214.062C816.326 214.062 809.129 206.865 809.129 197.987V141.986C809.129 138.688 808.5 135.587 807.244 132.682C805.988 129.698 804.261 127.107 802.063 124.909C799.864 122.71 797.312 120.983 794.408 119.726C791.502 118.47 788.401 117.842 785.103 117.842C781.727 117.842 778.547 118.47 775.563 119.726C772.58 120.983 769.989 122.71 767.791 124.909C765.592 127.107 763.864 129.698 762.608 132.682C761.352 135.587 760.724 138.688 760.724 141.986V197.986ZM901.354 214.062C891.64 214.062 882.934 208.063 879.476 198.985L845.926 110.918C841.699 99.8208 849.895 87.9278 861.77 87.9278C868.973 87.9278 875.39 92.4791 877.771 99.2771L901.354 166.6L924.818 99.3298C927.199 92.502 933.639 87.9278 940.871 87.9278C952.778 87.9278 960.997 99.8533 956.758 110.981L923.233 198.984C919.775 208.063 911.069 214.062 901.354 214.062Z" fill="#4F4F4F"/>
<path d="M681.218 53.9481V62.3148C681.218 71.2586 688.468 78.5089 697.412 78.5089C706.356 78.5089 713.606 71.2586 713.606 62.3148V53.9481C713.606 45.0043 706.356 37.7539 697.412 37.7539C688.468 37.7539 681.218 45.0043 681.218 53.9481Z" fill="#4F4F4F"/>
<path d="M1018.31 183.207C1019.57 183.6 1020.82 183.875 1022.08 184.032C1023.34 184.11 1024.59 184.149 1025.85 184.149C1028.99 184.149 1032.01 183.717 1034.92 182.854C1037.82 181.99 1040.53 180.773 1043.04 179.202C1045.64 177.554 1051.27 175.369 1051.27 175.369L1053.57 174.93C1059.76 173.751 1066 176.712 1069 182.249L1069.38 182.964C1070.95 185.846 1071.31 189.226 1070.4 192.374C1068.85 197.744 1065.67 202.541 1061.07 205.709C1059.08 207.072 1057.03 208.399 1055.41 209.235C1050.94 211.591 1046.18 213.357 1041.16 214.535C1036.21 215.791 1031.11 216.419 1025.85 216.419C1016.98 216.419 1008.61 214.77 1000.76 211.472C992.991 208.175 986.16 203.581 980.271 197.693C974.461 191.804 969.868 184.817 966.492 176.73C963.116 168.564 961.428 159.613 961.428 149.877C961.428 139.906 963.116 130.798 966.492 122.554C969.868 114.31 974.461 107.283 980.271 101.473C986.16 95.6627 992.991 91.1481 1000.76 87.9289C1008.61 84.7098 1016.98 83.1003 1025.85 83.1003C1031.11 83.1003 1036.25 83.7285 1041.28 84.9847C1043.36 85.5057 1046.17 86.5266 1048.74 87.543C1053.28 89.3385 1057.4 92.0341 1061.08 95.2455C1070.83 103.754 1072.02 118.487 1063.75 128.446L1018.31 183.207ZM1034.8 116.901C1033.31 116.351 1031.82 115.998 1030.33 115.841C1028.91 115.684 1027.42 115.606 1025.85 115.606C1021.45 115.606 1017.29 116.43 1013.37 118.079C1009.52 119.649 1006.14 121.926 1003.24 124.91C1000.41 127.893 998.173 131.505 996.525 135.745C994.875 139.906 994.051 144.617 994.051 149.877C994.051 151.055 994.091 152.39 994.169 153.882C994.325 155.374 994.522 156.905 994.758 158.475C995.071 159.966 995.425 161.42 995.817 162.832C996.21 164.245 996.72 165.502 997.348 166.601L1034.8 116.901ZM1206.17 149.019C1206.17 167.018 1198.86 184.246 1185.91 196.751C1182.85 199.499 1179.59 202.09 1176.14 204.525C1172.76 206.88 1169.19 208.96 1165.42 210.766C1161.65 212.493 1157.76 213.868 1153.76 214.888C1149.83 215.909 1145.83 216.419 1141.75 216.419C1132.88 216.419 1124.51 214.77 1116.66 211.472C1108.89 208.096 1102.06 203.464 1096.17 197.576C1090.36 191.608 1085.77 184.581 1082.39 176.494C1079.01 168.329 1077.33 159.456 1077.33 149.877C1077.33 140.377 1079.01 131.544 1082.39 123.379C1085.77 115.213 1090.36 108.147 1096.17 102.18C1102.06 96.2124 1108.89 91.5407 1116.66 88.1645C1124.51 84.7884 1132.88 83.1003 1141.75 83.1003C1144.57 83.1003 1147.48 83.3359 1150.46 83.807C1153.52 84.278 1156.47 85.0631 1159.3 86.1624C1162.2 87.1832 1164.91 88.5571 1167.42 90.2845C1169.93 92.0118 1171.58 93.1473 1173.78 95.5656V37.7578C1173.78 37.7578 1173 20.5 1190 20.5C1207 20.5 1206.17 37.7578 1206.17 37.7578V149.019ZM1173.78 149.877C1173.78 145.48 1172.92 141.241 1171.19 137.158C1169.54 132.997 1167.27 129.346 1164.36 126.205C1161.46 122.986 1158.04 120.434 1154.11 118.55C1150.27 116.587 1146.14 115.606 1141.75 115.606C1137.35 115.606 1133.19 116.391 1129.26 117.961C1125.42 119.531 1122.04 121.808 1119.13 124.792C1116.31 127.697 1114.07 131.269 1112.42 135.509C1110.77 139.749 1109.95 144.538 1109.95 149.877C1109.95 154.509 1110.77 158.907 1112.42 163.068C1114.07 167.229 1116.31 170.88 1119.13 174.021C1122.04 177.161 1125.42 179.634 1129.26 181.441C1133.19 183.246 1137.35 184.149 1141.75 184.149C1146.14 184.149 1150.27 183.207 1154.11 181.322C1158.04 179.36 1161.46 176.808 1164.36 173.667C1167.27 170.448 1169.54 166.798 1171.19 162.715C1172.92 158.554 1173.78 154.275 1173.78 149.877Z" fill="#8BC426"/>
<defs>
<linearGradient id="paint0_linear" x1="169.5" y1="-18.5" x2="183.5" y2="157.5" gradientUnits="userSpaceOnUse">
<stop stop-color="#0C7702"/>
<stop offset="1" stop-color="#DBF43C"/>
</linearGradient>
<linearGradient id="paint1_linear" x1="155.5" y1="321.5" x2="259" y2="-4.49203e-05" gradientUnits="userSpaceOnUse">
<stop stop-color="#0C7702"/>
<stop offset="1" stop-color="#DBF43C"/>
</linearGradient>
<linearGradient id="paint2_linear" x1="-15.5" y1="135" x2="163.187" y2="122.945" gradientUnits="userSpaceOnUse">
<stop stop-color="#0C7702"/>
<stop offset="1" stop-color="#DBF43C"/>
</linearGradient>
</defs>
</svg>
